<?xml version="1.0" encoding="UTF-8"?>
<svg id="Layer_1" xmlns="http://www.w3.org/2000/svg" version="1.1" viewBox="0 0 256 256">
  <!-- Generator: Adobe Illustrator 29.1.0, SVG Export Plug-In . SVG Version: 2.1.0 Build 142)  -->
  <defs>
    <style>
      .st0 {
        fill: #fff;
      }
    </style>
  </defs>
  <path class="st0" d="M0,0h256v256H0V0Z"/>
  <g>
    <path d="M53.1,235.9v-100.9h38.8c7.6,0,14.6,1.3,21,3.9,6.4,2.6,12.1,6.2,16.9,10.7,4.8,4.6,8.6,9.9,11.3,16.1,2.7,6.2,4.1,12.8,4.1,19.9s-1.3,13.7-4,19.8c-2.7,6.1-6.5,11.4-11.3,15.9-4.9,4.5-10.5,8.1-16.9,10.7-6.4,2.6-13.5,3.9-21,3.9h-38.8ZM74,217.3h17.6c4.5,0,8.7-.8,12.6-2.4,3.9-1.6,7.3-3.9,10.2-6.8,2.9-2.9,5.2-6.2,6.8-10,1.6-3.8,2.4-7.9,2.4-12.5s-.8-8.6-2.4-12.5c-1.6-3.9-3.8-7.3-6.8-10.2-2.9-2.9-6.3-5.2-10.2-6.8-3.9-1.6-8-2.4-12.5-2.4h-17.7v63.7Z"/>
    <path d="M204.9,237.4c-7.5,0-14.5-1.3-21-4-6.5-2.6-12.2-6.3-17.1-11-4.9-4.7-8.6-10.2-11.4-16.5-2.7-6.3-4.1-13.1-4.1-20.4s1.4-14.1,4.1-20.4,6.6-11.8,11.5-16.6,10.6-8.5,17.1-11.1c6.5-2.6,13.5-4,21-4s11,.8,16.1,2.3c5.2,1.5,10,3.7,14.5,6.5,4.5,2.8,8.3,6.2,11.5,10.1l-14.1,13.8c-3.6-4.5-7.7-7.9-12.5-10.2-4.8-2.3-9.9-3.4-15.4-3.4s-8.7.8-12.7,2.5c-3.9,1.7-7.4,4-10.2,6.9-2.9,2.9-5.1,6.4-6.8,10.3-1.6,3.9-2.5,8.3-2.5,13.1s.8,8.9,2.5,12.9c1.7,4,4,7.4,6.9,10.4,2.9,2.9,6.4,5.2,10.4,6.8,4,1.6,8.4,2.4,13.2,2.4s10.2-1.1,14.8-3.3c4.6-2.2,8.6-5.4,12.1-9.5l13.5,13.5c-3.2,3.8-6.9,7.2-11.3,9.9-4.4,2.8-9.2,4.9-14.3,6.4-5.2,1.5-10.4,2.2-15.7,2.2Z"/>
  </g>
</svg>